<svg width="15" height="15" viewBox="0 0 15 15" fill="none" xmlns="http://www.w3.org/2000/svg">
<path d="M13.5937 2H1.40626C0.6308 2 0 2.6308 0 3.40626V11.8438C0 12.6192 0.6308 13.25 1.40626 13.25H13.5937C14.3692 13.25 15 12.6192 15 11.8438V3.40626C15 2.6308 14.3692 2 13.5937 2ZM13.5937 2.9375C13.6574 2.9375 13.718 2.95071 13.7734 2.97379L7.5 8.41099L1.22656 2.97379C1.28195 2.95074 1.34254 2.9375 1.40623 2.9375H13.5937ZM13.5937 12.3125H1.40626C1.14763 12.3125 0.937496 12.1024 0.937496 11.8437V3.96426L7.19283 9.38556C7.2812 9.46199 7.3906 9.5 7.5 9.5C7.6094 9.5 7.7188 9.46202 7.80717 9.38556L14.0625 3.96426V11.8438C14.0625 12.1024 13.8524 12.3125 13.5937 12.3125Z" fill="#8D8E90"/>
</svg>
