<svg width="239" height="681" viewBox="0 0 239 681" fill="none" xmlns="http://www.w3.org/2000/svg">
<path d="M67.3828 415.592V397.525C67.3828 381.9 70.7194 368.31 77.3926 356.754C84.0658 345.198 96.2728 332.91 114.014 319.889C131.104 307.682 142.334 297.753 147.705 290.104C153.239 282.454 156.006 273.909 156.006 264.469C156.006 253.889 152.1 245.833 144.287 240.299C136.475 234.765 125.57 231.998 111.572 231.998C87.1582 231.998 59.3262 239.973 28.0762 255.924L1.46484 202.457C37.7604 182.112 76.2533 171.939 116.943 171.939C150.472 171.939 177.083 179.996 196.777 196.109C216.634 212.223 226.562 233.707 226.562 260.562C226.562 278.466 222.493 293.928 214.355 306.949C206.217 319.97 190.755 334.618 167.969 350.895C152.344 362.451 142.415 371.24 138.184 377.262C134.115 383.284 132.08 391.178 132.08 400.943V415.592H67.3828ZM59.5703 499.088C59.5703 485.416 63.2324 475.081 70.5566 468.082C77.8809 461.083 88.5417 457.584 102.539 457.584C116.048 457.584 126.465 461.165 133.789 468.326C141.276 475.488 145.02 485.742 145.02 499.088C145.02 511.946 141.276 522.118 133.789 529.605C126.302 536.93 115.885 540.592 102.539 540.592C88.8672 540.592 78.2878 537.011 70.8008 529.85C63.3138 522.525 59.5703 512.271 59.5703 499.088Z" fill="white"/>
<path d="M55.5 450H155.5V550H55.5V450Z" fill="#010101"/>
<circle cx="98" cy="498" r="36" fill="#00FD5F"/>
</svg>
