<svg width="15" height="15" viewBox="0 0 15 15" fill="none" xmlns="http://www.w3.org/2000/svg">
<path d="M13 0H2C0.895431 0 0 0.89543 0 2V13C0 14.1046 0.89543 15 2 15H13C14.1046 15 15 14.1046 15 13V2C15 0.895431 14.1046 0 13 0Z" fill="#8D8E90"/>
<path d="M3.53016 2.27815C4.21718 2.27871 4.78379 2.84615 4.78231 3.53659C4.78067 4.25955 4.18071 4.80445 3.5217 4.78875C2.85328 4.80227 2.26586 4.24398 2.26599 3.53182C2.26599 2.84112 2.83481 2.27763 3.53016 2.27815Z" fill="#0C0C0C"/>
<path d="M4.25999 12.7204H2.78803C2.597 12.7204 2.44214 12.5655 2.44214 12.3745V6.09504C2.44214 5.90401 2.597 5.74915 2.78803 5.74915H4.25999C4.45102 5.74915 4.60588 5.90401 4.60588 6.09504V12.3745C4.60585 12.5655 4.45102 12.7204 4.25999 12.7204Z" fill="#0C0C0C"/>
<path d="M12.7339 7.95476C12.7339 7.95476 12.7339 7.95475 12.7339 7.95473C12.7339 6.63831 11.6667 5.57112 10.3502 5.57112H9.97272C9.25249 5.57112 8.6162 5.93048 8.23347 6.47975C8.19227 6.53886 8.15408 6.60021 8.11897 6.66352C8.11815 6.665 8.11439 6.6655 8.11273 6.66525C8.10851 6.66464 8.0979 6.65067 8.0979 6.64642V5.89273C8.0979 5.81344 8.03362 5.74912 7.95429 5.74912H6.11785C6.03856 5.74912 5.97424 5.8134 5.97424 5.89273V12.5768C5.97424 12.6561 6.03849 12.7204 6.11778 12.7204L7.99425 12.7209C8.07357 12.7209 8.13789 12.6566 8.13789 12.5773V8.71571C8.13789 8.04821 8.67027 7.49397 9.33774 7.48643C9.67847 7.48258 9.98737 7.61911 10.21 7.84187C10.4297 8.06144 10.5655 8.36504 10.5655 8.70024V12.5778C10.5655 12.6571 10.6298 12.7214 10.7091 12.7214L12.5902 12.7219C12.6695 12.7219 12.7338 12.6576 12.7338 12.5782V7.9548C12.7338 7.95478 12.7338 7.95476 12.7339 7.95476Z" fill="#0C0C0C"/>
</svg>
