<svg width="251" height="240" viewBox="0 0 251 240" fill="none" xmlns="http://www.w3.org/2000/svg">
<path d="M66.3008 130.44H3.93506V120.554L47.8773 55.5787H5.12753V43.3698H65.1083V53.3751L20.9873 118.231H66.3008V130.44ZM121.512 130.44L118.709 121.269H118.233C115.053 125.278 111.853 128.019 108.633 129.487C105.413 130.916 101.28 131.631 96.2313 131.631C89.7528 131.631 84.6846 129.885 81.0277 126.391C77.4106 122.897 75.602 117.954 75.602 111.561C75.602 104.771 78.1261 99.6495 83.1741 96.1954C88.2222 92.7413 95.9133 90.8558 106.248 90.5382L117.637 90.1808V86.6665C117.637 82.4582 116.643 79.3215 114.655 77.2569C112.707 75.1527 109.667 74.1005 105.533 74.1005C102.154 74.1005 98.9143 74.5968 95.8141 75.5894C92.7139 76.582 89.7324 77.7533 86.8705 79.1032L82.3395 69.0978C85.9166 67.2318 89.8325 65.8222 94.0851 64.8693C98.3385 63.8768 102.353 63.3805 106.129 63.3805C114.516 63.3805 120.836 65.2069 125.09 68.8596C129.382 72.5124 131.528 78.2495 131.528 86.071V130.44H121.512ZM100.644 120.911C105.732 120.911 109.806 119.502 112.867 116.683C115.967 113.824 117.517 109.834 117.517 104.712V98.9948L109.051 99.3522C102.452 99.5902 97.6423 100.702 94.6218 102.687C91.6404 104.633 90.1496 107.63 90.1496 111.681C90.1496 114.618 91.0247 116.902 92.7733 118.529C94.5226 120.117 97.1454 120.911 100.644 120.911ZM184.533 131.631C176.186 131.631 169.707 128.634 165.096 122.638H164.262C164.818 128.197 165.096 131.572 165.096 132.763V159.742H151.085V64.5716H162.413C162.731 65.8024 163.387 68.7405 164.381 73.3858H165.096C169.469 66.7156 176.027 63.3805 184.772 63.3805C193 63.3805 199.399 66.3583 203.97 72.3138C208.582 78.2694 210.887 86.6267 210.887 97.3871C210.887 108.147 208.542 116.544 203.851 122.579C199.201 128.614 192.761 131.631 184.533 131.631ZM181.135 74.8152C175.57 74.8152 171.496 76.443 168.912 79.6988C166.368 82.9545 165.096 88.1555 165.096 95.3026V97.3871C165.096 105.407 166.368 111.223 168.912 114.836C171.456 118.41 175.61 120.196 181.374 120.196C186.222 120.196 189.959 118.211 192.582 114.241C195.206 110.271 196.518 104.613 196.518 97.2677C196.518 89.8826 195.206 84.3043 192.582 80.5325C189.998 76.7209 186.183 74.8152 181.135 74.8152ZM239.267 103.997H228.893L225.792 43.3698H242.308L239.267 103.997ZM225.077 122.996C225.077 120.057 225.852 117.834 227.403 116.326C228.953 114.777 231.159 114.003 234.021 114.003C236.843 114.003 239.009 114.797 240.52 116.385C242.03 117.973 242.785 120.177 242.785 122.996C242.785 125.815 242.01 128.058 240.46 129.725C238.949 131.353 236.803 132.167 234.021 132.167C231.198 132.167 228.992 131.374 227.403 129.785C225.852 128.197 225.077 125.934 225.077 122.996Z" fill="white" fill-opacity="0.9"/>
<path d="M212.841 181.044H37.3108V183.044H212.841V181.044Z" fill="#25D366"/>
<path d="M154.336 201.322H157.757V205.556C156.86 205.937 155.851 206.127 154.729 206.127C153.265 206.127 152.142 205.714 151.359 204.889C150.58 204.06 150.191 202.888 150.191 201.373C150.191 200.429 150.383 199.593 150.769 198.865C151.158 198.133 151.712 197.568 152.432 197.17C153.155 196.773 153.985 196.574 154.92 196.574C155.931 196.574 156.839 196.76 157.643 197.132L157.383 197.716C156.579 197.344 155.745 197.158 154.882 197.158C153.659 197.158 152.688 197.536 151.968 198.294C151.253 199.047 150.896 200.065 150.896 201.347C150.896 202.744 151.236 203.795 151.917 204.502C152.599 205.204 153.6 205.556 154.92 205.556C155.775 205.556 156.5 205.435 157.097 205.194V201.931H154.336V201.322ZM162.721 206.127C161.718 206.127 160.935 205.818 160.373 205.2C159.814 204.582 159.535 203.717 159.535 202.604C159.535 201.504 159.806 200.624 160.347 199.963C160.889 199.299 161.619 198.967 162.537 198.967C163.35 198.967 163.991 199.25 164.46 199.817C164.93 200.384 165.165 201.155 165.165 202.128V202.636H160.195C160.203 203.584 160.423 204.307 160.855 204.807C161.291 205.306 161.913 205.556 162.721 205.556C163.115 205.556 163.46 205.528 163.756 205.473C164.056 205.418 164.435 205.3 164.892 205.118V205.689C164.503 205.858 164.143 205.972 163.813 206.032C163.483 206.095 163.119 206.127 162.721 206.127ZM162.537 199.525C161.873 199.525 161.34 199.745 160.938 200.186C160.535 200.621 160.301 201.252 160.233 202.077H164.499C164.499 201.277 164.325 200.653 163.978 200.205C163.631 199.752 163.151 199.525 162.537 199.525ZM171.259 206L171.1 204.908H171.049C170.702 205.353 170.345 205.668 169.977 205.854C169.613 206.036 169.181 206.127 168.682 206.127C168.005 206.127 167.478 205.953 167.101 205.606C166.724 205.259 166.536 204.779 166.536 204.166C166.536 203.493 166.815 202.97 167.374 202.598C167.937 202.225 168.749 202.028 169.812 202.007L171.125 201.969V201.512C171.125 200.856 170.992 200.361 170.726 200.027C170.459 199.693 170.029 199.525 169.437 199.525C168.798 199.525 168.136 199.703 167.45 200.059L167.215 199.513C167.973 199.157 168.722 198.979 169.462 198.979C170.22 198.979 170.785 199.176 171.157 199.57C171.534 199.963 171.722 200.577 171.722 201.411V206H171.259ZM168.72 205.556C169.456 205.556 170.036 205.346 170.459 204.927C170.886 204.504 171.1 203.918 171.1 203.169V202.49L169.894 202.541C168.925 202.587 168.233 202.739 167.818 202.998C167.408 203.251 167.203 203.649 167.203 204.191C167.203 204.623 167.334 204.959 167.596 205.2C167.863 205.437 168.237 205.556 168.72 205.556ZM178.774 206V201.525C178.774 200.831 178.628 200.327 178.336 200.014C178.044 199.697 177.592 199.538 176.978 199.538C176.153 199.538 175.548 199.748 175.163 200.167C174.782 200.581 174.591 201.256 174.591 202.191V206H173.963V199.1H174.496L174.617 200.046H174.655C175.103 199.326 175.901 198.967 177.048 198.967C178.614 198.967 179.396 199.807 179.396 201.487V206H178.774ZM185.167 206V196.72H185.814V205.391H190.238V206H185.167ZM191.559 205.505C191.559 205.09 191.728 204.883 192.066 204.883C192.413 204.883 192.587 205.09 192.587 205.505C192.587 205.92 192.413 206.127 192.066 206.127C191.728 206.127 191.559 205.92 191.559 205.505Z" fill="#8D8E90"/>
<path d="M157.745 219.271C157.745 220.828 157.337 222.007 156.52 222.807C155.703 223.602 154.504 224 152.921 224H150.699V214.72H153.207C154.688 214.72 155.813 215.107 156.583 215.881C157.358 216.656 157.745 217.786 157.745 219.271ZM157.041 219.296C157.041 217.968 156.702 216.969 156.025 216.3C155.352 215.627 154.362 215.291 153.054 215.291H151.347V223.429H152.883C155.655 223.429 157.041 222.051 157.041 219.296ZM162.506 224.127C161.503 224.127 160.72 223.818 160.157 223.2C159.599 222.582 159.319 221.717 159.319 220.604C159.319 219.504 159.59 218.624 160.132 217.963C160.674 217.299 161.403 216.967 162.322 216.967C163.134 216.967 163.775 217.25 164.245 217.817C164.715 218.384 164.95 219.155 164.95 220.128V220.636H159.979C159.988 221.584 160.208 222.307 160.64 222.807C161.076 223.306 161.698 223.556 162.506 223.556C162.899 223.556 163.244 223.528 163.541 223.473C163.841 223.418 164.22 223.3 164.677 223.118V223.689C164.287 223.858 163.928 223.972 163.598 224.032C163.268 224.095 162.904 224.127 162.506 224.127ZM162.322 217.525C161.657 217.525 161.124 217.745 160.722 218.186C160.32 218.621 160.085 219.252 160.018 220.077H164.283C164.283 219.277 164.11 218.653 163.763 218.205C163.416 217.752 162.935 217.525 162.322 217.525ZM171.132 222.204C171.132 222.821 170.897 223.298 170.428 223.632C169.958 223.962 169.292 224.127 168.428 224.127C167.506 224.127 166.774 223.985 166.232 223.702V223.022C166.926 223.369 167.658 223.543 168.428 223.543C169.11 223.543 169.626 223.431 169.977 223.207C170.333 222.978 170.51 222.675 170.51 222.299C170.51 221.952 170.368 221.66 170.085 221.423C169.806 221.186 169.344 220.953 168.701 220.725C168.011 220.475 167.527 220.261 167.248 220.083C166.968 219.902 166.757 219.698 166.613 219.474C166.473 219.246 166.403 218.968 166.403 218.643C166.403 218.126 166.619 217.718 167.051 217.417C167.487 217.117 168.094 216.967 168.873 216.967C169.617 216.967 170.324 217.106 170.993 217.386L170.758 217.957C170.081 217.678 169.452 217.538 168.873 217.538C168.31 217.538 167.863 217.631 167.533 217.817C167.203 218.004 167.038 218.262 167.038 218.592C167.038 218.951 167.165 219.239 167.419 219.455C167.677 219.671 168.179 219.912 168.923 220.179C169.545 220.403 169.998 220.606 170.282 220.788C170.565 220.966 170.777 221.169 170.917 221.397C171.06 221.626 171.132 221.895 171.132 222.204ZM175.696 224.127C174.693 224.127 173.91 223.818 173.348 223.2C172.789 222.582 172.51 221.717 172.51 220.604C172.51 219.504 172.781 218.624 173.322 217.963C173.864 217.299 174.594 216.967 175.512 216.967C176.325 216.967 176.966 217.25 177.436 217.817C177.905 218.384 178.14 219.155 178.14 220.128V220.636H173.17C173.178 221.584 173.398 222.307 173.83 222.807C174.266 223.306 174.888 223.556 175.696 223.556C176.09 223.556 176.435 223.528 176.731 223.473C177.031 223.418 177.41 223.3 177.867 223.118V223.689C177.478 223.858 177.118 223.972 176.788 224.032C176.458 224.095 176.094 224.127 175.696 224.127ZM175.512 217.525C174.848 217.525 174.315 217.745 173.913 218.186C173.511 218.621 173.276 219.252 173.208 220.077H177.474C177.474 219.277 177.3 218.653 176.953 218.205C176.606 217.752 176.126 217.525 175.512 217.525ZM184.856 224V219.525C184.856 218.831 184.71 218.327 184.418 218.014C184.126 217.697 183.673 217.538 183.06 217.538C182.234 217.538 181.629 217.748 181.244 218.167C180.863 218.581 180.673 219.256 180.673 220.191V224H180.044V217.1H180.578L180.698 218.046H180.736C181.185 217.326 181.983 216.967 183.129 216.967C184.695 216.967 185.478 217.807 185.478 219.487V224H184.856ZM189.223 224L186.557 217.1H187.205L188.988 221.791C189.225 222.392 189.403 222.917 189.521 223.365H189.56C189.733 222.79 189.911 222.261 190.093 221.778L191.876 217.1H192.524L189.858 224H189.223ZM199.386 220.541C199.386 221.666 199.113 222.546 198.567 223.181C198.021 223.812 197.268 224.127 196.307 224.127C195.702 224.127 195.169 223.981 194.708 223.689C194.246 223.397 193.893 222.978 193.647 222.432C193.402 221.886 193.279 221.256 193.279 220.541C193.279 219.415 193.552 218.539 194.098 217.913C194.644 217.282 195.393 216.967 196.345 216.967C197.293 216.967 198.036 217.286 198.573 217.925C199.115 218.56 199.386 219.432 199.386 220.541ZM193.939 220.541C193.939 221.488 194.147 222.229 194.562 222.762C194.98 223.291 195.571 223.556 196.333 223.556C197.094 223.556 197.682 223.291 198.097 222.762C198.516 222.229 198.726 221.488 198.726 220.541C198.726 219.588 198.514 218.85 198.091 218.325C197.672 217.8 197.082 217.538 196.32 217.538C195.558 217.538 194.97 217.8 194.555 218.325C194.145 218.846 193.939 219.584 193.939 220.541ZM201.925 224H201.296V214.123H201.925V224ZM205.752 224L203.086 217.1H203.734L205.518 221.791C205.755 222.392 205.932 222.917 206.051 223.365H206.089C206.262 222.79 206.44 222.261 206.622 221.778L208.406 217.1H209.053L206.387 224H205.752ZM212.995 224.127C211.992 224.127 211.209 223.818 210.646 223.2C210.088 222.582 209.809 221.717 209.809 220.604C209.809 219.504 210.079 218.624 210.621 217.963C211.163 217.299 211.893 216.967 212.811 216.967C213.624 216.967 214.265 217.25 214.734 217.817C215.204 218.384 215.439 219.155 215.439 220.128V220.636H210.469C210.477 221.584 210.697 222.307 211.129 222.807C211.565 223.306 212.187 223.556 212.995 223.556C213.389 223.556 213.734 223.528 214.03 223.473C214.33 223.418 214.709 223.3 215.166 223.118V223.689C214.777 223.858 214.417 223.972 214.087 224.032C213.757 224.095 213.393 224.127 212.995 224.127ZM212.811 217.525C212.147 217.525 211.613 217.745 211.211 218.186C210.809 218.621 210.575 219.252 210.507 220.077H214.772C214.772 219.277 214.599 218.653 214.252 218.205C213.905 217.752 213.425 217.525 212.811 217.525ZM219.87 216.967C220.369 216.967 220.801 217.058 221.165 217.24C221.528 217.422 221.854 217.733 222.142 218.173H222.18C222.155 217.64 222.142 217.117 222.142 216.605V214.123H222.764V224H222.352L222.193 222.946H222.142C221.617 223.733 220.864 224.127 219.882 224.127C218.93 224.127 218.202 223.831 217.699 223.238C217.195 222.646 216.943 221.783 216.943 220.648C216.943 219.455 217.193 218.543 217.692 217.913C218.192 217.282 218.917 216.967 219.87 216.967ZM219.87 217.538C219.116 217.538 218.549 217.803 218.168 218.332C217.792 218.861 217.604 219.629 217.604 220.636C217.604 222.591 218.363 223.568 219.882 223.568C220.661 223.568 221.232 223.342 221.596 222.889C221.96 222.436 222.142 221.689 222.142 220.648V220.541C222.142 219.474 221.962 218.708 221.603 218.243C221.247 217.773 220.669 217.538 219.87 217.538ZM230.794 220.541C230.794 221.666 230.521 222.546 229.975 223.181C229.429 223.812 228.676 224.127 227.715 224.127C227.11 224.127 226.577 223.981 226.116 223.689C225.654 223.397 225.301 222.978 225.056 222.432C224.81 221.886 224.688 221.256 224.688 220.541C224.688 219.415 224.96 218.539 225.506 217.913C226.052 217.282 226.801 216.967 227.753 216.967C228.701 216.967 229.444 217.286 229.981 217.925C230.523 218.56 230.794 219.432 230.794 220.541ZM225.348 220.541C225.348 221.488 225.555 222.229 225.97 222.762C226.389 223.291 226.979 223.556 227.741 223.556C228.502 223.556 229.091 223.291 229.505 222.762C229.924 222.229 230.134 221.488 230.134 220.541C230.134 219.588 229.922 218.85 229.499 218.325C229.08 217.8 228.49 217.538 227.728 217.538C226.966 217.538 226.378 217.8 225.963 218.325C225.553 218.846 225.348 219.584 225.348 220.541ZM235.421 216.967C235.713 216.967 236.027 216.996 236.361 217.056L236.24 217.659C235.952 217.587 235.654 217.551 235.345 217.551C234.757 217.551 234.275 217.8 233.898 218.3C233.521 218.799 233.333 219.43 233.333 220.191V224H232.705V217.1H233.238L233.301 218.344H233.346C233.629 217.836 233.932 217.481 234.253 217.278C234.575 217.07 234.964 216.967 235.421 216.967Z" fill="#8D8E90"/>
</svg>
