<svg width="25" height="55" viewBox="0 0 25 55" fill="none" xmlns="http://www.w3.org/2000/svg">
<path d="M18.3398 48H16.7188V37.2969H18.3398V48ZM16.582 34.3965C16.582 34.0254 16.6732 33.7552 16.8555 33.5859C17.0378 33.4102 17.2656 33.3223 17.5391 33.3223C17.7995 33.3223 18.0241 33.4102 18.2129 33.5859C18.4017 33.7617 18.4961 34.0319 18.4961 34.3965C18.4961 34.7611 18.4017 35.0345 18.2129 35.2168C18.0241 35.3926 17.7995 35.4805 17.5391 35.4805C17.2656 35.4805 17.0378 35.3926 16.8555 35.2168C16.6732 35.0345 16.582 34.7611 16.582 34.3965Z" fill="white"/>
<path d="M10.6152 21H0.800781V19.7012L8.37891 8.2168H1.03516V6.72266H10.4004V8.02148L2.82227 19.4961H10.6152V21ZM22.3633 21L20.5859 16.459H14.8633L13.1055 21H11.4258L17.0703 6.66406H18.4668L24.082 21H22.3633ZM20.0684 14.9648L18.4082 10.541C18.1934 9.98112 17.972 9.29427 17.7441 8.48047C17.6009 9.10547 17.3958 9.79232 17.1289 10.541L15.4492 14.9648H20.0684ZM11.0156 37.8828C11.0156 39.3281 10.5208 40.4414 9.53125 41.2227C8.54818 41.9974 7.13867 42.3848 5.30273 42.3848H3.62305V48H1.96289V33.7227H5.66406C9.23177 33.7227 11.0156 35.1094 11.0156 37.8828ZM3.62305 40.959H5.11719C6.58854 40.959 7.65299 40.7214 8.31055 40.2461C8.9681 39.7708 9.29688 39.0091 9.29688 37.9609C9.29688 37.0169 8.98763 36.3138 8.36914 35.8516C7.75065 35.3893 6.78711 35.1582 5.47852 35.1582H3.62305V40.959Z" fill="white"/>
<rect width="16" height="2" transform="matrix(1 0 0 -1 5 55)" fill="#0DEF3F"/>
</svg>
